<mxfile host="app.diagrams.net" modified="2023-10-15T03:38:47.287Z" agent="Mozilla/5.0 (Windows NT 10.0; Win64; x64; rv:109.0) Gecko/20100101 Firefox/118.0" etag="O9mU1zzBX8cLkkgtzHYn" version="22.0.4" type="device">
  <diagram name="Page-1" id="gmgBAF0B5bskegWVsLzO">
    <mxGraphModel dx="1221" dy="761" grid="1" gridSize="10" guides="1" tooltips="1" connect="1" arrows="1" fold="1" page="1" pageScale="1" pageWidth="850" pageHeight="1100" math="0" shadow="0">
      <root>
        <mxCell id="0" />
        <mxCell id="1" parent="0" />
      </root>
    </mxGraphModel>
  </diagram>
</mxfile>
